<svg data-v-423bf9ae="" xmlns="http://www.w3.org/2000/svg" viewBox="0 0 324.21361397831777 209" class="iconAboveSlogan"><!----><!----><!----><g data-v-423bf9ae="" id="aed459ea-9335-493c-b262-7587d392179b" fill="#FFFFFF" transform="matrix(5.934717742604922,0,0,5.934717742604922,-5.222555753192893,97.93678619412563)"><path d="M4.69 14.52C6.27 14.52 7.42 13.66 7.99 12.33L7.31 11.93C6.89 13.05 5.99 13.76 4.69 13.76C2.87 13.76 1.78 12.45 1.78 10.05L1.78 8.95C1.78 6.54 2.87 5.17 4.69 5.17C5.92 5.17 6.80 5.84 7.24 6.90L7.92 6.50C7.34 5.21 6.24 4.41 4.69 4.41C2.28 4.41 0.88 6.20 0.88 9.49C0.88 12.80 2.28 14.52 4.69 14.52ZM13.33 14.52C15.81 14.52 17.32 12.77 17.32 9.46C17.32 6.16 15.81 4.41 13.33 4.41C10.84 4.41 9.32 6.16 9.32 9.46C9.32 12.77 10.84 14.52 13.33 14.52ZM13.33 13.76C11.45 13.76 10.22 12.40 10.22 10.08L10.22 8.85C10.22 6.52 11.45 5.17 13.33 5.17C15.19 5.17 16.42 6.52 16.42 8.85L16.42 10.08C16.42 12.40 15.19 13.76 13.33 13.76ZM19.59 14.35L22.69 14.35C25.20 14.35 26.64 12.71 26.64 9.46C26.64 6.22 25.20 4.58 22.69 4.58L19.59 4.58ZM20.43 13.61L20.43 5.32L22.71 5.32C24.63 5.32 25.75 6.65 25.75 8.82L25.75 10.11C25.75 12.28 24.63 13.61 22.71 13.61ZM34.62 14.35L34.62 13.61L29.75 13.61L29.75 9.76L34.38 9.76L34.38 9.02L29.75 9.02L29.75 5.32L34.62 5.32L34.62 4.58L28.91 4.58L28.91 14.35ZM42.10 14.35L42.10 13.61L37.79 13.61L37.79 4.58L36.95 4.58L36.95 14.35ZM47.01 14.35L47.01 13.65L45.58 13.65L45.58 5.28L47.01 5.28L47.01 4.58L43.32 4.58L43.32 5.28L44.74 5.28L44.74 13.65L43.32 13.65L43.32 14.35ZM55.51 5.32L55.51 4.58L48.12 4.58L48.12 5.32L51.39 5.32L51.39 14.35L52.23 14.35L52.23 5.32Z"></path></g><!----><g data-v-423bf9ae="" id="31618c8f-da16-489d-90b3-2e83f46b089c" transform="matrix(1.1111000061035157,0,0,1.1111000061035157,117.91322503270639,0.4455549396545351)" stroke="none" fill="#57CBCC"><path d="M67.292 97.443c-.301-11.429-7.519-12.781-7.067-20.752.301-9.774 7.067-14.887 7.067-14.887S50.901 63.309 47.743 83.91c0 0-1.805-17.294-6.466-25.264-4.662-7.368-6.467-5.864-6.467-5.864s4.061 5.112-4.36 18.045c-8.872 13.985-1.354 20.15-1.354 20.15S15.863 88.12 14.059 73.233c0 0-.301.902-.752 1.654-2.104 4.661-.15 15.338.15 25.112-24.661-15.338-7.97-37.443-7.519-54.888C6.54 21.352.224 12.931.224 12.931s19.248 16.842 24.06 24.662C23.231 16.542 33.607 6.015 48.194 0c-5.563 8.722-4.512 16.241-3.158 23.458 2.105 11.579 8.421 17.745 8.421 17.745s5.564-5.564 8.121-12.03c4.21-10.827 3.458-15.639 3.458-15.639 9.173 6.316 29.925 65.413 2.256 83.909z"></path></g><!----><g data-v-423bf9ae="" id="2ecb3116-9130-4c38-8c69-8ed9bb140191" fill="#FFFFFF" transform="matrix(1.2603546349186305,0,0,1.2603546349186305,41.10226209608129,218.83244558446822)"><path d="M1.22 15.68L1.22 5.88L2.39 5.88L2.39 14.59L7.52 14.59L7.52 15.68L1.22 15.68ZM16.88 15.68L16.88 5.88L22.82 5.88L22.82 6.97L18.06 6.97L18.06 10.22L22.74 10.22L22.74 11.31L18.06 11.31L18.06 14.59L22.90 14.59L22.90 15.68L16.88 15.68ZM38.23 15.68L37.52 13.24L33.32 13.24L32.61 15.68L31.35 15.68L34.31 5.88L36.53 5.88L39.49 15.68L38.23 15.68ZM35.50 6.38L35.34 6.38L33.64 12.15L37.20 12.15L35.50 6.38ZM54.05 12.15L54.05 15.68L52.88 15.68L52.88 12.40L52.88 12.40Q52.88 12.04 52.71 11.84L52.71 11.84L52.71 11.84Q52.54 11.65 52.12 11.65L52.12 11.65L49.07 11.65L49.07 15.68L47.89 15.68L47.89 5.88L51.39 5.88L51.39 5.88Q52.15 5.88 52.71 6.10L52.71 6.10L52.71 6.10Q53.27 6.31 53.64 6.68L53.64 6.68L53.64 6.68Q54.01 7.04 54.20 7.53L54.20 7.53L54.20 7.53Q54.39 8.01 54.39 8.54L54.39 8.54L54.39 8.96L54.39 8.96Q54.39 9.51 54.09 10.05L54.09 10.05L54.09 10.05Q53.79 10.60 53.16 10.89L53.16 10.89L53.16 11.06L53.16 11.06Q53.58 11.13 53.82 11.40L53.82 11.40L53.82 11.40Q54.05 11.66 54.05 12.15L54.05 12.15ZM49.07 6.97L49.07 10.56L51.25 10.56L51.25 10.56Q52.25 10.56 52.73 10.13L52.73 10.13L52.73 10.13Q53.21 9.70 53.21 8.88L53.21 8.88L53.21 8.62L53.21 8.62Q53.21 7.88 52.73 7.43L52.73 7.43L52.73 7.43Q52.25 6.97 51.25 6.97L51.25 6.97L49.07 6.97ZM65.65 5.88L68.47 15.18L68.64 15.18L68.64 5.88L69.82 5.88L69.82 15.68L67.47 15.68L64.64 6.38L64.47 6.38L64.47 15.68L63.29 15.68L63.29 5.88L65.65 5.88ZM94.25 6.97L94.25 5.88L101.14 5.88L101.14 6.97L98.28 6.97L98.28 15.68L97.10 15.68L97.10 6.97L94.25 6.97ZM109.82 11.87L109.82 9.69L109.82 9.69Q109.82 7.78 110.73 6.73L110.73 6.73L110.73 6.73Q111.64 5.68 113.26 5.68L113.26 5.68L113.26 5.68Q114.88 5.68 115.79 6.73L115.79 6.73L115.79 6.73Q116.70 7.78 116.70 9.69L116.70 9.69L116.70 11.87L116.70 11.87Q116.70 13.83 115.79 14.85L115.79 14.85L115.79 14.85Q114.88 15.88 113.26 15.88L113.26 15.88L113.26 15.88Q111.64 15.88 110.73 14.85L110.73 14.85L110.73 14.85Q109.82 13.83 109.82 11.87L109.82 11.87ZM113.26 14.78L113.26 14.78L113.26 14.78Q114.39 14.78 114.96 14.01L114.96 14.01L114.96 14.01Q115.53 13.23 115.53 11.79L115.53 11.79L115.53 9.77L115.53 9.77Q115.53 8.43 114.96 7.60L114.96 7.60L114.96 7.60Q114.39 6.78 113.26 6.78L113.26 6.78L113.26 6.78Q112.13 6.78 111.56 7.60L111.56 7.60L111.56 7.60Q110.99 8.43 110.99 9.77L110.99 9.77L110.99 11.79L110.99 11.79Q110.99 13.23 111.56 14.01L111.56 14.01L111.56 14.01Q112.13 14.78 113.26 14.78ZM144.45 14.78L144.45 14.78L144.45 14.78Q145.05 14.78 145.48 14.58L145.48 14.58L145.48 14.58Q145.91 14.38 146.18 14.04L146.18 14.04L146.18 14.04Q146.45 13.69 146.59 13.25L146.59 13.25L146.59 13.25Q146.72 12.81 146.72 12.32L146.72 12.32L146.72 12.15L147.90 12.15L147.90 12.32L147.90 12.32Q147.90 13.06 147.67 13.71L147.67 13.71L147.67 13.71Q147.45 14.36 147.01 14.85L147.01 14.85L147.01 14.85Q146.58 15.33 145.94 15.60L145.94 15.60L145.94 15.60Q145.29 15.88 144.45 15.88L144.45 15.88L144.45 15.88Q142.83 15.88 141.92 14.85L141.92 14.85L141.92 14.85Q141.01 13.83 141.01 11.87L141.01 11.87L141.01 9.69L141.01 9.69Q141.01 7.78 141.92 6.73L141.92 6.73L141.92 6.73Q142.83 5.68 144.45 5.68L144.45 5.68L144.45 5.68Q145.29 5.68 145.94 5.96L145.94 5.96L145.94 5.96Q146.58 6.23 147.01 6.71L147.01 6.71L147.01 6.71Q147.45 7.20 147.67 7.85L147.67 7.85L147.67 7.85Q147.90 8.50 147.90 9.24L147.90 9.24L147.90 9.41L146.72 9.41L146.72 9.24L146.72 9.24Q146.71 8.76 146.57 8.32L146.57 8.32L146.57 8.32Q146.44 7.87 146.17 7.53L146.17 7.53L146.17 7.53Q145.89 7.18 145.47 6.98L145.47 6.98L145.47 6.98Q145.05 6.78 144.45 6.78L144.45 6.78L144.45 6.78Q143.32 6.78 142.75 7.60L142.75 7.60L142.75 7.60Q142.18 8.43 142.18 9.77L142.18 9.77L142.18 11.79L142.18 11.79Q142.18 13.23 142.75 14.01L142.75 14.01L142.75 14.01Q143.32 14.78 144.45 14.78ZM156.52 11.87L156.52 9.69L156.52 9.69Q156.52 7.78 157.43 6.73L157.43 6.73L157.43 6.73Q158.34 5.68 159.96 5.68L159.96 5.68L159.96 5.68Q161.59 5.68 162.50 6.73L162.50 6.73L162.50 6.73Q163.41 7.78 163.41 9.69L163.41 9.69L163.41 11.87L163.41 11.87Q163.41 13.83 162.50 14.85L162.50 14.85L162.50 14.85Q161.59 15.88 159.96 15.88L159.96 15.88L159.96 15.88Q158.34 15.88 157.43 14.85L157.43 14.85L157.43 14.85Q156.52 13.83 156.52 11.87L156.52 11.87ZM159.96 14.78L159.96 14.78L159.96 14.78Q161.10 14.78 161.67 14.01L161.67 14.01L161.67 14.01Q162.23 13.23 162.23 11.79L162.23 11.79L162.23 9.77L162.23 9.77Q162.23 8.43 161.67 7.60L161.67 7.60L161.67 7.60Q161.10 6.78 159.96 6.78L159.96 6.78L159.96 6.78Q158.83 6.78 158.26 7.60L158.26 7.60L158.26 7.60Q157.70 8.43 157.70 9.77L157.70 9.77L157.70 11.79L157.70 11.79Q157.70 13.23 158.26 14.01L158.26 14.01L158.26 14.01Q158.83 14.78 159.96 14.78ZM172.27 6.97L172.27 5.88L175.49 5.88L175.49 5.88Q177.31 5.88 178.15 6.75L178.15 6.75L178.15 6.75Q178.99 7.62 178.99 9.52L178.99 9.52L178.99 12.04L178.99 12.04Q178.99 13.94 178.15 14.81L178.15 14.81L178.15 14.81Q177.31 15.68 175.49 15.68L175.49 15.68L172.27 15.68L172.27 14.57L173.11 14.57L173.11 6.97L172.27 6.97ZM174.29 14.59L175.32 14.59L175.32 14.59Q175.97 14.59 176.44 14.46L176.44 14.46L176.44 14.46Q176.90 14.34 177.21 14.04L177.21 14.04L177.21 14.04Q177.52 13.73 177.67 13.23L177.67 13.23L177.67 13.23Q177.81 12.73 177.81 11.96L177.81 11.96L177.81 9.60L177.81 9.60Q177.81 8.83 177.67 8.33L177.67 8.33L177.67 8.33Q177.52 7.83 177.21 7.53L177.21 7.53L177.21 7.53Q176.90 7.22 176.44 7.10L176.44 7.10L176.44 7.10Q175.97 6.97 175.32 6.97L175.32 6.97L174.29 6.97L174.29 14.59ZM188.13 15.68L188.13 5.88L194.07 5.88L194.07 6.97L189.31 6.97L189.31 10.22L193.98 10.22L193.98 11.31L189.31 11.31L189.31 14.59L194.15 14.59L194.15 15.68L188.13 15.68Z"></path></g></svg>